M48
;DRILL file {KiCad (5.0.2-5-10.14)} date 2020 December 04, Friday 11:41:41
;FORMAT={-:-/ absolute / metric / decimal}
FMAT,2
METRIC,TZ
T1C0.400
T2C0.900
T3C1.000
T4C1.092
T5C1.100
T6C1.500
T7C3.200
%
G90
G05
T1
X136.906Y-87.122
X142.748Y-105.918
X143.764Y-122.682
X154.95Y-65.37
X155.3Y-58.41
X155.75Y-63.34
X161.47Y-54.23
X161.49Y-52.54
X163.322Y-64.262
X197.104Y-66.294
X197.358Y-58.928
T3
X191.481Y-154.82
X198.236Y-158.72
X147.23Y-102.16
X155.03Y-102.16
X166.28Y-89.535
X174.08Y-89.535
X185.24Y-130.22
X193.04Y-130.22
X200.66Y-55.536
X200.66Y-63.336
X204.38Y-81.915
X212.18Y-81.915
X108.86Y-120.14
X116.66Y-120.14
X204.38Y-106.68
X212.18Y-106.68
X166.28Y-70.485
X174.08Y-70.485
X87.89Y-101.11
X95.69Y-101.11
X109.46Y-139.17
X117.26Y-139.17
X198.882Y-101.6
X198.882Y-104.14
X198.882Y-106.68
X214.884Y-55.536
X214.884Y-63.336
X108.29Y-101.1
X116.09Y-101.1
X128.15Y-127.19
X135.95Y-127.19
X128.15Y-70.12
X135.95Y-70.12
X87.96Y-82.
X95.76Y-82.
X206.879Y-165.629
X212.394Y-171.144
X147.23Y-125.095
X155.03Y-125.095
X186.951Y-148.293
X188.969Y-140.759
X185.24Y-92.11
X193.04Y-92.11
X128.18Y-108.585
X135.98Y-108.585
X200.961Y-138.4
X207.716Y-142.3
X87.79Y-120.15
X95.59Y-120.15
X166.28Y-127.635
X174.08Y-127.635
X221.773Y-152.613
X227.289Y-158.129
X185.04Y-73.03
X192.84Y-73.03
X185.13Y-111.15
X192.93Y-111.15
X148.91Y-134.09
X148.91Y-141.89
X166.28Y-108.585
X174.08Y-108.585
X146.57Y-64.03
X154.37Y-64.03
X128.21Y-89.04
X136.01Y-89.04
X87.98Y-139.32
X95.78Y-139.32
X108.55Y-82.02
X116.35Y-82.02
X147.04Y-83.18
X154.84Y-83.18
X167.89Y-133.31
X167.89Y-141.11
T4
X143.51Y-52.07
X143.51Y-54.61
X143.51Y-57.15
X143.51Y-59.69
X143.51Y-62.23
X143.51Y-64.77
X143.51Y-67.31
X143.51Y-69.85
X143.51Y-72.39
X143.51Y-74.93
X143.51Y-77.47
X143.51Y-80.01
X158.75Y-52.07
X158.75Y-54.61
X158.75Y-57.15
X158.75Y-59.69
X158.75Y-62.23
X158.75Y-64.77
X158.75Y-67.31
X158.75Y-69.85
X158.75Y-72.39
X158.75Y-74.93
X158.75Y-77.47
X158.75Y-80.01
T5
X115.Y-57.6
X115.Y-62.1
X121.5Y-57.6
X121.5Y-62.1
T7
X196.215Y-52.07
X102.87Y-128.905
X109.6Y-59.5
X215.5Y-146.
T2
X203.172Y-61.8G85X203.172Y-62.4
G05
X207.772Y-53.7G85X207.772Y-54.3
G05
X207.772Y-56.7G85X207.772Y-57.3
G05
X207.772Y-60.7G85X207.772Y-61.3
G05
X212.372Y-61.8G85X212.372Y-62.4
G05
T6
X136.425Y-134.475G85X135.615Y-135.935
G05
X136.885Y-133.396G85X136.925Y-133.974
G05
X141.965Y-133.396G85X141.925Y-133.974
G05
X142.425Y-134.475G85X143.235Y-135.935
G05
X201.314Y-154.048G85X199.645Y-154.02
G05
X202.479Y-154.189G85X201.998Y-153.866
G05
X204.314Y-148.852G85X203.455Y-147.42
G05
X205.019Y-149.79G85X204.498Y-149.535
G05
X110.025Y-69.8G85X109.215Y-71.26
G05
X110.485Y-68.721G85X110.525Y-69.299
G05
X115.565Y-68.721G85X115.525Y-69.299
G05
X116.025Y-69.8G85X116.835Y-71.26
G05
X177.788Y-136.61G85X176.627Y-137.81
G05
X178.511Y-135.686G85X178.4Y-136.256
G05
X183.418Y-137.001G85X183.23Y-137.55
G05
X183.583Y-138.163G85X183.988Y-139.783
G05
X90.975Y-126.925G85X90.165Y-128.385
G05
X91.435Y-125.846G85X91.475Y-126.424
G05
X96.515Y-125.846G85X96.475Y-126.424
G05
X96.975Y-126.925G85X97.785Y-128.385
G05
X167.18Y-77.28G85X166.37Y-78.74
G05
X167.64Y-76.201G85X167.68Y-76.779
G05
X172.72Y-76.201G85X172.68Y-76.779
G05
X173.18Y-77.28G85X173.99Y-78.74
G05
X148.125Y-89.9G85X147.315Y-91.36
G05
X148.585Y-88.821G85X148.625Y-89.399
G05
X153.665Y-88.821G85X153.625Y-89.399
G05
X154.125Y-89.9G85X154.935Y-91.36
G05
X148.13Y-51.8G85X147.32Y-53.26
G05
X148.59Y-50.721G85X148.63Y-51.299
G05
X153.67Y-50.721G85X153.63Y-51.299
G05
X154.13Y-51.8G85X154.94Y-53.26
G05
X129.075Y-57.825G85X128.265Y-59.285
G05
X129.535Y-56.746G85X129.575Y-57.324
G05
X134.615Y-56.746G85X134.575Y-57.324
G05
X135.075Y-57.825G85X135.885Y-59.285
G05
X129.075Y-76.85G85X128.265Y-78.31
G05
X129.535Y-75.771G85X129.575Y-76.349
G05
X134.615Y-75.771G85X134.575Y-76.349
G05
X135.075Y-76.85G85X135.885Y-78.31
G05
X129.075Y-114.975G85X128.265Y-116.435
G05
X129.535Y-113.896G85X129.575Y-114.474
G05
X134.615Y-113.896G85X134.575Y-114.474
G05
X135.075Y-114.975G85X135.885Y-116.435
G05
X129.09Y-95.92G85X128.28Y-97.38
G05
X129.55Y-94.841G85X129.59Y-95.419
G05
X134.63Y-94.841G85X134.59Y-95.419
G05
X135.09Y-95.92G85X135.9Y-97.38
G05
X110.03Y-126.925G85X109.22Y-128.385
G05
X110.49Y-125.846G85X110.53Y-126.424
G05
X115.57Y-125.846G85X115.53Y-126.424
G05
X116.03Y-126.925G85X116.84Y-128.385
G05
X217.057Y-167.399G85X215.452Y-166.94
G05
X218.146Y-167.837G85X217.764Y-167.4
G05
X221.299Y-163.157G85X220.84Y-161.552
G05
X221.737Y-164.246G85X221.3Y-163.864
G05
X208.302Y-127.936G85X206.87Y-128.795
G05
X209.24Y-127.231G85X208.985Y-127.752
G05
X213.639Y-129.771G85X213.316Y-130.252
G05
X213.498Y-130.936G85X213.47Y-132.605
G05
X90.98Y-107.88G85X90.17Y-109.34
G05
X91.44Y-106.801G85X91.48Y-107.379
G05
X96.52Y-106.801G85X96.48Y-107.379
G05
X96.98Y-107.88G85X97.79Y-109.34
G05
X148.125Y-70.825G85X147.315Y-72.285
G05
X148.585Y-69.746G85X148.625Y-70.324
G05
X153.665Y-69.746G85X153.625Y-70.324
G05
X154.125Y-70.825G85X154.935Y-72.285
G05
X155.45Y-134.45G85X154.64Y-135.91
G05
X155.91Y-133.371G85X155.95Y-133.949
G05
X160.99Y-133.371G85X160.95Y-133.949
G05
X161.45Y-134.45G85X162.26Y-135.91
G05
X186.225Y-98.875G85X185.415Y-100.335
G05
X186.685Y-97.796G85X186.725Y-98.374
G05
X191.765Y-97.796G85X191.725Y-98.374
G05
X192.225Y-98.875G85X193.035Y-100.335
G05
X212.28Y-94.79G85X210.82Y-93.98
G05
X212.28Y-100.79G85X210.82Y-101.6
G05
X213.359Y-95.25G85X212.781Y-95.29
G05
X213.359Y-100.33G85X212.781Y-100.29
G05
X186.23Y-60.775G85X185.42Y-62.235
G05
X186.69Y-59.696G85X186.73Y-60.274
G05
X191.77Y-59.696G85X191.73Y-60.274
G05
X192.23Y-60.775G85X193.04Y-62.235
G05
X186.23Y-117.9G85X185.42Y-119.36
G05
X186.69Y-116.821G85X186.73Y-117.399
G05
X191.77Y-116.821G85X191.73Y-117.399
G05
X192.23Y-117.9G85X193.04Y-119.36
G05
X110.025Y-107.875G85X109.215Y-109.335
G05
X110.485Y-106.796G85X110.525Y-107.374
G05
X115.565Y-106.796G85X115.525Y-107.374
G05
X116.025Y-107.875G85X116.835Y-109.335
G05
X230.557Y-144.051G85X228.952Y-144.51
G05
X231.646Y-143.613G85X231.264Y-144.05
G05
X234.799Y-148.293G85X234.34Y-149.898
G05
X235.237Y-147.204G85X234.8Y-147.586
G05
X205.28Y-69.66G85X204.47Y-71.12
G05
X205.74Y-68.581G85X205.78Y-69.159
G05
X210.82Y-68.581G85X210.78Y-69.159
G05
X211.28Y-69.66G85X212.09Y-71.12
G05
X110.03Y-88.85G85X109.22Y-90.31
G05
X110.49Y-87.771G85X110.53Y-88.349
G05
X115.57Y-87.771G85X115.53Y-88.349
G05
X116.03Y-88.85G85X116.84Y-90.31
G05
X167.18Y-58.23G85X166.37Y-59.69
G05
X167.64Y-57.151G85X167.68Y-57.729
G05
X172.72Y-57.151G85X172.68Y-57.729
G05
X173.18Y-58.23G85X173.99Y-59.69
G05
X167.18Y-115.38G85X166.37Y-116.84
G05
X167.64Y-114.301G85X167.68Y-114.879
G05
X172.72Y-114.301G85X172.68Y-114.879
G05
X173.18Y-115.38G85X173.99Y-116.84
G05
X90.98Y-88.85G85X90.17Y-90.31
G05
X91.44Y-87.771G85X91.48Y-88.349
G05
X96.52Y-87.771G85X96.48Y-88.349
G05
X96.98Y-88.85G85X97.79Y-90.31
G05
X148.125Y-108.95G85X147.315Y-110.41
G05
X148.585Y-107.871G85X148.625Y-108.449
G05
X153.665Y-107.871G85X153.625Y-108.449
G05
X154.125Y-108.95G85X154.935Y-110.41
G05
X167.18Y-96.33G85X166.37Y-97.79
G05
X167.64Y-95.251G85X167.68Y-95.829
G05
X172.72Y-95.251G85X172.68Y-95.829
G05
X173.18Y-96.33G85X173.99Y-97.79
G05
X90.98Y-69.79G85X90.17Y-71.25
G05
X91.44Y-68.711G85X91.48Y-69.289
G05
X96.52Y-68.711G85X96.48Y-69.289
G05
X96.98Y-69.79G85X97.79Y-71.25
G05
X186.225Y-79.825G85X185.415Y-81.285
G05
X186.685Y-78.746G85X186.725Y-79.324
G05
X191.765Y-78.746G85X191.725Y-79.324
G05
X192.225Y-79.825G85X193.035Y-81.285
G05
T0
M30
