M48
;DRILL file {KiCad (5.0.2-5-10.14)} date 2020 December 04, Friday 11:41:41
;FORMAT={-:-/ absolute / metric / decimal}
FMAT,2
METRIC,TZ
T1C1.500
T2C1.702
T3C3.988
%
G90
G05
T1
X205.472Y-52.4
X205.472Y-59.4
X210.072Y-52.4
X210.072Y-59.4
T2
X184.15Y-64.775
X194.31Y-64.775
X184.15Y-121.9
X194.31Y-121.9
X107.945Y-111.875
X118.105Y-111.875
X226.258Y-145.408
X233.442Y-152.592
X203.2Y-73.66
X213.36Y-73.66
X107.95Y-92.85
X118.11Y-92.85
X165.1Y-62.23
X175.26Y-62.23
X165.1Y-119.38
X175.26Y-119.38
X88.9Y-92.85
X99.06Y-92.85
X146.045Y-112.95
X156.205Y-112.95
X165.1Y-100.33
X175.26Y-100.33
X88.9Y-73.79
X99.06Y-73.79
X184.145Y-83.825
X194.305Y-83.825
X134.345Y-138.475
X144.505Y-138.475
X196.81Y-153.849
X201.89Y-145.051
X107.945Y-73.8
X118.105Y-73.8
X174.743Y-139.935
X184.557Y-142.565
X88.895Y-130.925
X99.055Y-130.925
X165.1Y-81.28
X175.26Y-81.28
X146.045Y-93.9
X156.205Y-93.9
X146.05Y-55.8
X156.21Y-55.8
X126.995Y-61.825
X137.155Y-61.825
X126.995Y-80.85
X137.155Y-80.85
X126.995Y-118.975
X137.155Y-118.975
X127.01Y-99.92
X137.17Y-99.92
X107.95Y-130.925
X118.11Y-130.925
X212.758Y-166.042
X219.942Y-158.858
X204.501Y-130.36
X213.299Y-135.44
X88.9Y-111.88
X99.06Y-111.88
X146.045Y-74.825
X156.205Y-74.825
X153.37Y-138.45
X163.53Y-138.45
X184.145Y-102.875
X194.305Y-102.875
X208.28Y-92.71
X208.28Y-102.87
T3
X170.18Y-62.23
X170.18Y-119.38
X93.98Y-92.85
X151.125Y-112.95
X170.18Y-100.33
X93.98Y-73.79
X189.225Y-83.825
X139.425Y-138.475
X199.35Y-149.45
X113.025Y-73.8
X179.65Y-141.25
X93.975Y-130.925
X170.18Y-81.28
X151.125Y-93.9
X151.13Y-55.8
X132.075Y-61.825
X132.075Y-80.85
X132.075Y-118.975
X132.09Y-99.92
X113.03Y-130.925
X216.35Y-162.45
X208.9Y-132.9
X93.98Y-111.88
X151.125Y-74.825
X158.45Y-138.45
X189.225Y-102.875
X208.28Y-97.79
X189.23Y-64.775
X189.23Y-121.9
X113.025Y-111.875
X229.85Y-149.
X208.28Y-73.66
X113.03Y-92.85
T0
M30
