G04 #@! TF.GenerationSoftware,KiCad,Pcbnew,(5.0.2-5-10.14)*
G04 #@! TF.CreationDate,2020-12-04T11:41:37+07:00*
G04 #@! TF.ProjectId,ki-redox,6b692d72-6564-46f7-982e-6b696361645f,1.0*
G04 #@! TF.SameCoordinates,Original*
G04 #@! TF.FileFunction,Paste,Top*
G04 #@! TF.FilePolarity,Positive*
%FSLAX46Y46*%
G04 Gerber Fmt 4.6, Leading zero omitted, Abs format (unit mm)*
G04 Created by KiCad (PCBNEW (5.0.2-5-10.14)) date 2020 December 04, Friday 11:41:37*
%MOMM*%
%LPD*%
G01*
G04 APERTURE LIST*
%ADD10C,1.200000*%
%ADD11C,0.100000*%
%ADD12R,1.200000X1.200000*%
G04 APERTURE END LIST*
D10*
G04 #@! TO.C,D36*
X225644505Y-156484505D03*
D11*
G36*
X226493033Y-156484505D02*
X225644505Y-157333033D01*
X224795977Y-156484505D01*
X225644505Y-155635977D01*
X226493033Y-156484505D01*
X226493033Y-156484505D01*
G37*
D10*
X223417119Y-154257119D03*
D11*
G36*
X224265647Y-154257119D02*
X223417119Y-155105647D01*
X222568591Y-154257119D01*
X223417119Y-153408591D01*
X224265647Y-154257119D01*
X224265647Y-154257119D01*
G37*
G04 #@! TD*
D10*
G04 #@! TO.C,D46*
X210750000Y-169500000D03*
D11*
G36*
X211598528Y-169500000D02*
X210750000Y-170348528D01*
X209901472Y-169500000D01*
X210750000Y-168651472D01*
X211598528Y-169500000D01*
X211598528Y-169500000D01*
G37*
D10*
X208522614Y-167272614D03*
D11*
G36*
X209371142Y-167272614D02*
X208522614Y-168121142D01*
X207674086Y-167272614D01*
X208522614Y-166424086D01*
X209371142Y-167272614D01*
X209371142Y-167272614D01*
G37*
G04 #@! TD*
D12*
G04 #@! TO.C,D0*
X90285000Y-82000000D03*
X93435000Y-82000000D03*
G04 #@! TD*
G04 #@! TO.C,D1*
X110875000Y-82020000D03*
X114025000Y-82020000D03*
G04 #@! TD*
G04 #@! TO.C,D2*
X130475000Y-70120000D03*
X133625000Y-70120000D03*
G04 #@! TD*
G04 #@! TO.C,D3*
X148895000Y-64030000D03*
X152045000Y-64030000D03*
G04 #@! TD*
G04 #@! TO.C,D4*
X168605000Y-70485000D03*
X171755000Y-70485000D03*
G04 #@! TD*
G04 #@! TO.C,D5*
X187365000Y-73030000D03*
X190515000Y-73030000D03*
G04 #@! TD*
G04 #@! TO.C,D6*
X206705000Y-81915000D03*
X209855000Y-81915000D03*
G04 #@! TD*
G04 #@! TO.C,D10*
X90215000Y-101110000D03*
X93365000Y-101110000D03*
G04 #@! TD*
G04 #@! TO.C,D11*
X110615000Y-101100000D03*
X113765000Y-101100000D03*
G04 #@! TD*
G04 #@! TO.C,D12*
X130535000Y-89040000D03*
X133685000Y-89040000D03*
G04 #@! TD*
G04 #@! TO.C,D13*
X149365000Y-83180000D03*
X152515000Y-83180000D03*
G04 #@! TD*
G04 #@! TO.C,D14*
X168605000Y-89535000D03*
X171755000Y-89535000D03*
G04 #@! TD*
G04 #@! TO.C,D15*
X187565000Y-92110000D03*
X190715000Y-92110000D03*
G04 #@! TD*
G04 #@! TO.C,D16*
X206705000Y-106680000D03*
X209855000Y-106680000D03*
G04 #@! TD*
G04 #@! TO.C,D20*
X90115000Y-120150000D03*
X93265000Y-120150000D03*
G04 #@! TD*
G04 #@! TO.C,D21*
X111185000Y-120140000D03*
X114335000Y-120140000D03*
G04 #@! TD*
G04 #@! TO.C,D22*
X130505000Y-108585000D03*
X133655000Y-108585000D03*
G04 #@! TD*
G04 #@! TO.C,D23*
X149555000Y-102160000D03*
X152705000Y-102160000D03*
G04 #@! TD*
G04 #@! TO.C,D24*
X168605000Y-108585000D03*
X171755000Y-108585000D03*
G04 #@! TD*
G04 #@! TO.C,D25*
X187455000Y-111150000D03*
X190605000Y-111150000D03*
G04 #@! TD*
D10*
G04 #@! TO.C,D26*
X202974279Y-139562500D03*
D11*
G36*
X203793894Y-139342885D02*
X203193894Y-140382115D01*
X202154664Y-139782115D01*
X202754664Y-138742885D01*
X203793894Y-139342885D01*
X203793894Y-139342885D01*
G37*
D10*
X205702259Y-141137500D03*
D11*
G36*
X206521874Y-140917885D02*
X205921874Y-141957115D01*
X204882644Y-141357115D01*
X205482644Y-140317885D01*
X206521874Y-140917885D01*
X206521874Y-140917885D01*
G37*
G04 #@! TD*
D12*
G04 #@! TO.C,D30*
X90305000Y-139320000D03*
X93455000Y-139320000D03*
G04 #@! TD*
G04 #@! TO.C,D31*
X111785000Y-139170000D03*
X114935000Y-139170000D03*
G04 #@! TD*
G04 #@! TO.C,D32*
X130475000Y-127190000D03*
X133625000Y-127190000D03*
G04 #@! TD*
G04 #@! TO.C,D33*
X149555000Y-125095000D03*
X152705000Y-125095000D03*
G04 #@! TD*
G04 #@! TO.C,D34*
X168605000Y-127635000D03*
X171755000Y-127635000D03*
G04 #@! TD*
G04 #@! TO.C,D35*
X187565000Y-130220000D03*
X190715000Y-130220000D03*
G04 #@! TD*
G04 #@! TO.C,D42*
X148910000Y-139565000D03*
X148910000Y-136415000D03*
G04 #@! TD*
G04 #@! TO.C,D43*
X167890000Y-138785000D03*
X167890000Y-135635000D03*
G04 #@! TD*
D10*
G04 #@! TO.C,D44*
X187552360Y-146047333D03*
D11*
G36*
X187128096Y-145312486D02*
X188287207Y-145623069D01*
X187976624Y-146782180D01*
X186817513Y-146471597D01*
X187128096Y-145312486D01*
X187128096Y-145312486D01*
G37*
D10*
X188367640Y-143004667D03*
D11*
G36*
X187943376Y-142269820D02*
X189102487Y-142580403D01*
X188791904Y-143739514D01*
X187632793Y-143428931D01*
X187943376Y-142269820D01*
X187943376Y-142269820D01*
G37*
G04 #@! TD*
D10*
G04 #@! TO.C,D45*
X193494279Y-155982500D03*
D11*
G36*
X194313894Y-155762885D02*
X193713894Y-156802115D01*
X192674664Y-156202115D01*
X193274664Y-155162885D01*
X194313894Y-155762885D01*
X194313894Y-155762885D01*
G37*
D10*
X196222259Y-157557500D03*
D11*
G36*
X197041874Y-157337885D02*
X196441874Y-158377115D01*
X195402644Y-157777115D01*
X196002644Y-156737885D01*
X197041874Y-157337885D01*
X197041874Y-157337885D01*
G37*
G04 #@! TD*
M02*
